<?xml version="1.0" standalone="no"?>
<!DOCTYPE svg PUBLIC "-//W3C//DTD SVG 20010904//EN"
 "http://www.w3.org/TR/2001/REC-SVG-20010904/DTD/svg10.dtd">
<svg version="1.0" xmlns="http://www.w3.org/2000/svg"
 width="260.000000pt" height="380.000000pt" viewBox="0 0 260.000000 380.000000"
 preserveAspectRatio="xMidYMid meet">

<g transform="translate(0.000000,380.000000) scale(0.100000,-0.100000)"
fill="#000000" stroke="none">
<path d="M1076 3175 c-410 -78 -756 -359 -916 -746 -17 -40 -43 -121 -58 -179
-24 -94 -26 -124 -27 -285 0 -163 3 -190 27 -286 114 -450 450 -789 895 -905
121 -32 353 -44 483 -25 427 63 794 350 960 752 17 40 43 121 58 179 24 95 27
122 27 285 -1 161 -3 191 -27 286 -113 448 -449 788 -895 906 -83 22 -124 26
-273 29 -126 2 -197 -1 -254 -11z m363 -31 c264 -60 454 -297 455 -569 1 -163
-50 -295 -157 -411 -116 -125 -238 -178 -442 -194 -188 -14 -313 -68 -425
-181 -119 -119 -174 -256 -174 -429 0 -88 5 -118 27 -183 61 -175 181 -306
344 -373 79 -32 36 -32 -87 1 -202 54 -379 161 -540 325 -156 159 -245 314
-307 535 -26 94 -28 112 -28 300 0 188 2 206 28 300 62 221 151 376 307 535
106 108 204 182 315 237 238 118 473 155 684 107z m-61 -1654 c51 -31 74 -76
69 -136 -4 -61 -28 -97 -83 -124 -51 -25 -77 -25 -129 0 -76 37 -108 137 -65
208 42 69 139 94 208 52z"/>
<path d="M1224 2702 c-73 -46 -98 -113 -69 -187 53 -140 237 -140 290 0 24 60
13 107 -34 158 -35 37 -43 41 -97 44 -46 3 -66 0 -90 -15z"/>
</g>
</svg>
