<?xml version="1.0" standalone="no"?>
<!DOCTYPE svg PUBLIC "-//W3C//DTD SVG 20010904//EN"
 "http://www.w3.org/TR/2001/REC-SVG-20010904/DTD/svg10.dtd">
<svg version="1.0" xmlns="http://www.w3.org/2000/svg"
 width="260.000000pt" height="380.000000pt" viewBox="0 0 260.000000 380.000000"
 preserveAspectRatio="xMidYMid meet">

<g transform="translate(0.000000,380.000000) scale(0.100000,-0.100000)"
fill="#000000" stroke="none">
<path d="M1094 3174 c-249 -41 -483 -163 -664 -345 -364 -366 -462 -918 -244
-1378 207 -439 634 -711 1114 -711 481 0 907 272 1114 711 158 333 153 719
-14 1054 -125 252 -301 429 -550 555 -228 115 -504 157 -756 114z m363 -30
c134 -35 260 -126 341 -247 70 -106 97 -196 97 -327 0 -59 -6 -127 -14 -155
-25 -89 -90 -203 -153 -265 -115 -115 -231 -166 -415 -181 -141 -11 -189 -22
-281 -66 -223 -105 -363 -363 -331 -613 26 -213 172 -405 364 -482 90 -36 94
-39 40 -32 -140 17 -332 93 -476 189 -271 180 -463 474 -520 795 -17 96 -17
313 0 410 57 320 250 615 519 794 150 100 300 160 476 191 95 17 267 11 353
-11z m-91 -1645 c56 -27 84 -72 84 -136 0 -151 -193 -210 -277 -84 -30 45 -31
120 -3 166 22 36 90 75 129 75 14 0 44 -9 67 -21z"/>
<path d="M1230 2702 c-110 -55 -107 -222 4 -273 53 -24 80 -24 132 2 56 27 84
72 84 136 0 86 -66 153 -150 153 -19 0 -51 -8 -70 -18z"/>
</g>
</svg>
